<svg xmlns="http://www.w3.org/2000/svg" id="i-logo-kream" fill="none" viewBox="0 0 120 24"><path fill="#222" d="M26.257 5.279l.822-2.879H21.7l-6.276 6.858h-3.806L13.591 2.4H7.819l-5.51 19.2h5.774l1.97-6.858h4.853L16.87 21.6h4.721l.823-2.879-2.114-7.27 5.957-6.172zM43.923 2.4H29.73l-5.51 19.2h5.774l1.95-6.858h2.887l3.821 6.858h4.855l.823-2.879-2.567-3.979c1.915-.301 3.75-1.317 4.656-4.579l.792-2.827c.111-.383.192-.74.223-1.097a3.889 3.889 0 00-.01-.82c-.22-1.786-1.558-3.019-3.5-3.019zm-3.275 7.682h-7.345l.708-2.47h7.348l-.71 2.47zm15.632-2.47h9.42l2.38-1.921.947-3.291H51.972l-5.51 19.2h17.055l1.49-5.209H53.76l.556-1.921h11.243l1.416-4.937H55.728l.553-1.92zM78.197 2.4l-11.38 16.321-.823 2.879h5.904l1.739-2.879h7.872l.096 2.879h5.38l.823-2.879L85.805 2.4h-7.608zM76.76 13.785l3.805-5.9h.264l.391 5.897h-4.46v.003zM111.263 2.4l-7.096 8.944h-.813L101.389 2.4h-6.43l-4.662 16.321-.844 2.879h5.817l2.999-10.499h.41l1.359 7.62h3.213l5.728-7.62h.412L106.368 21.6h5.814l.81-2.879 4.7-16.321h-6.429z"></path></svg>